<svg aria-hidden="true" style="position: absolute; width: 0; height: 0; overflow: hidden;" version="1.1" xmlns="http://www.w3.org/2000/svg" xmlns:xlink="http://www.w3.org/1999/xlink">
<defs>
<symbol id="icon-instagram" viewBox="0 0 32 32">
<path d="M1.833 16c0-2.944 0-4.416 0.28-5.633 0.944-4.105 4.149-7.31 8.254-8.254 1.217-0.28 2.689-0.28 5.633-0.28s4.416 0 5.633 0.28c4.105 0.944 7.31 4.149 8.254 8.254 0.28 1.217 0.28 2.689 0.28 5.633s0 4.416-0.28 5.633c-0.944 4.105-4.149 7.31-8.254 8.254-1.217 0.28-2.689 0.28-5.633 0.28s-4.416 0-5.633-0.28c-4.105-0.944-7.31-4.149-8.254-8.254-0.28-1.217-0.28-2.689-0.28-5.633zM16 8.5c-4.142 0-7.5 3.358-7.5 7.5s3.358 7.5 7.5 7.5c4.142 0 7.5-3.358 7.5-7.5s-3.358-7.5-7.5-7.5zM16 20.687c-2.584 0-4.688-2.104-4.688-4.688 0-2.586 2.104-4.688 4.688-4.688s4.687 2.102 4.687 4.688c0 2.584-2.104 4.688-4.687 4.688zM25.062 7.937c0 0.552-0.447 0.999-0.999 0.999s-0.999-0.447-0.999-0.999 0.447-0.999 0.999-0.999c0.552 0 0.999 0.447 0.999 0.999z"></path>
</symbol>
<symbol id="icon-telegram" viewBox="0 0 39 32">
<path d="M15.719 21.1l-0.611 8.591c0.874 0 1.252-0.375 1.706-0.826l4.097-3.915 8.489 6.217c1.557 0.868 2.654 0.411 3.074-1.432l5.574-26.112c0.494-2.302-0.832-3.202-2.349-2.637l-32.754 12.54c-2.235 0.868-2.202 2.114-0.38 2.678l8.374 2.605 19.451-12.171c0.915-0.606 1.748-0.271 1.063 0.335l-15.734 14.128z"></path>
</symbol>
<symbol id="icon-facebook" viewBox="0 0 19 32">
<path d="M16.664 0.947l-3.762-0.006c-4.227 0-6.959 2.879-6.959 7.335v3.382h-3.783c-0.327 0-0.592 0.272-0.592 0.608v4.9c0 0.336 0.265 0.608 0.592 0.608h3.783v12.364c0 0.336 0.265 0.608 0.592 0.608h4.936c0.327 0 0.592-0.272 0.592-0.608v-12.364h4.423c0.327 0 0.592-0.272 0.592-0.608l0.002-4.9c0-0.161-0.062-0.316-0.173-0.43s-0.262-0.178-0.419-0.178h-4.425v-2.867c0-1.378 0.32-2.077 2.067-2.077l2.535-0.001c0.327 0 0.591-0.272 0.591-0.608v-4.55c0-0.335-0.264-0.607-0.591-0.608z"></path>
</symbol>
</defs>
</svg>
